#N canvas 568 25 1285 835 12;
#X obj 100 100 cnv 15 260 259 empty empty empty 20 12 0 14 #000000 #404040 0;
#X obj 157 564 adc~ 1;
#X obj 920 110 loadbang;
#X obj 920 220 samplerate~;
#X obj 920 270 * 5;
#X obj 994 112 bng 25 250 50 0 empty empty empty 17 7 0 10 #e4e4e4 #4c4c4c #343434;
#X obj 249 643 line~;
#X msg 304 618 0 \, 1 15;
#X obj 104 713 del 15;
#X obj 200 200 bng 60 5000 5000 0 empty empty empty 17 7 0 10 #fcfcfc #ff0400 #000000;
#X obj 249 576 del 5015;
#X msg 249 607 0 15;
#X text 806 86 x * 2^(1/12);
#X obj 522 740 dac~;
#X obj 530 690 *~ 0.75;
#X obj 930 315 s \$0-n_samples;
#X obj 760 40 array define \$0-sample 100;
#X obj 157 792 tabwrite~ \$0-sample;
#N canvas 158 25 1725 949 keyconfig 0;
#N canvas 0 22 450 300 (subpatch) 0;
#X array \$0-keyboard 128 float 3;
#A 0 0 0 0 0 0 0 0 0 0 0 0 0 0 0 0 0 0 0 0 0 0 0 0 0 0 0 0 0 0 0 0 0 0 0 0 0 0 0 0 22 0 0 0 0 31 0 32 33 0 0 0 0 0 0 0 0 0 0 0 21 0 0 0 0 0 0 0 0 0 0 0 0 0 0 0 0 0 0 0 0 0 0 0 0 0 0 0 0 0 0 0 10 0 11 0 0 0 12 28 26 14 2 15 16 17 7 18 19 20 30 29 8 9 0 3 13 4 6 27 1 25 5 24 0 0 0 0 0;
#X coords 0 33 128 0 200 140 1;
#X restore 280 20 graph;
#X obj 56 331 tabwrite \$0-keyboard;
#X msg 56 231 0 113 \, 1 119 \, 2 101 \, 3 114 \, 4 116 \, 5 121 \, 6 117 \, 7 105 \, 8 111 \, 9 112 \, 10 91 \, 11 93 \, 12 97 \, 13 115 \, 14 100 \, 15 102 \, 16 103 \, 17 104 \, 18 106 \, 19 107 \, 20 108 \, 21 59 \, 22 39 \, 24 122 \, 25 120 \, 26 99 \, 27 118 \, 28 98 \, 29 110 \, 30 109 \, 31 44 \, 32 46 \, 33 47;
#X msg 88 173 const 0;
#X obj 88 203 s \$0-keyboard;
#X obj 56 121 loadbang;
#X obj 56 151 t b b;
#X obj 549 19 keyname;
#X floatatom 549 69 5 0 0 0 - - - 0;
#X symbolatom 595 50 10 0 0 0 - - - 0;
#X floatatom 595 107 5 0 0 0 - - - 0;
#X obj 703 138 tabread \$0-keyboard;
#X obj 549 149 swap, f 7;
#X obj 703 205 pack 0 0;
#X obj 37 124 bng 15 250 50 0 empty empty empty 17 7 0 10 #fcfcfc #000000 #000000;
#X floatatom 549 178 5 0 0 0 - - - 0;
#X obj 703 176 + 12;
#X obj 595 78 list fromsymbol;
#X obj 589 284 route bang;
#X obj 656 337 pack 0 0;
#X obj 656 311 + 12;
#X obj 549 256 list split 1;
#X obj 302 335 text define -k \$0-keyb;
#A set 113 0 \; 119 1 \; 101 2 \; 114 3 \; 116 4 \; 121 5 \; 117 6 \; 105 7 \; 111 8 \; 112 9 \; 97 12 \; 115 13 \; 100 14 \; 102 15 \; 103 16 \; 104 17 \; 106 18 \; 107 19 \; 108 20 \; 122 24 \; 120 25 \; 99 26 \; 118 27 \; 98 28 \; 110 29 \; 109 30 \;;
#X obj 549 204 text search \$0-keyb;
#X obj 549 233 text get \$0-keyb;
#X obj 1057 108 keyname;
#X floatatom 1057 158 5 0 0 0 - - - 0;
#X symbolatom 1103 139 10 0 0 0 - - - 0;
#X floatatom 1103 196 5 0 0 0 - - - 0;
#X obj 1057 238 swap, f 7;
#X floatatom 1057 267 5 0 0 0 - - - 0;
#X obj 1103 167 list fromsymbol;
#X obj 1097 373 route bang;
#X obj 1164 426 pack 0 0;
#X obj 1164 400 + 12;
#X obj 1057 345 list split 1;
#X obj 1057 293 text search \$0-keyb;
#X obj 1057 322 text get \$0-keyb;
#X obj 684 1085 poly 4 1;
#X obj 770 358 key;
#X floatatom 770 382 5 0 0 0 - - - 0;
#X obj 810 498 route bang;
#X obj 770 470 list split 1;
#X obj 770 418 text search \$0-keyb;
#X obj 770 447 text get \$0-keyb;
#X obj 469 629 array define \$0-krecord 32;
#X obj 1003 594 expr 1 - $f1;
#X obj 1003 543 t f f, f 19;
#X obj 877 525 t f f f, f 15;
#X obj 877 678 pack 0 0;
#X obj 1003 571 tabread \$0-krecord;
#X obj 1003 619 tabwrite \$0-krecord;
#X obj 930 645 tabread \$0-krecord;
#X obj 877 701 outlet;
#X obj 877 549 + 12;
#X connect 2 0 1 0;
#X connect 3 0 4 0;
#X connect 5 0 6 0;
#X connect 6 0 2 0;
#X connect 6 1 3 0;
#X connect 7 0 8 0;
#X connect 7 1 9 0;
#X connect 8 0 12 0;
#X connect 9 0 17 0;
#X connect 10 0 12 1;
#X connect 11 0 16 0;
#X connect 12 0 15 0;
#X connect 12 1 19 1;
#X connect 14 0 6 0;
#X connect 15 0 23 0;
#X connect 16 0 13 0;
#X connect 17 0 10 0;
#X connect 18 1 20 0;
#X connect 20 0 19 0;
#X connect 21 1 18 0;
#X connect 23 0 24 0;
#X connect 24 0 21 0;
#X connect 25 0 26 0;
#X connect 25 1 27 0;
#X connect 26 0 29 0;
#X connect 27 0 31 0;
#X connect 28 0 29 1;
#X connect 29 0 30 0;
#X connect 29 1 33 1;
#X connect 30 0 36 0;
#X connect 31 0 28 0;
#X connect 32 1 34 0;
#X connect 34 0 33 0;
#X connect 35 1 32 0;
#X connect 36 0 37 0;
#X connect 37 0 35 0;
#X connect 39 0 40 0;
#X connect 40 0 43 0;
#X connect 41 1 48 0;
#X connect 42 1 41 0;
#X connect 43 0 44 0;
#X connect 44 0 42 0;
#X connect 46 0 51 0;
#X connect 47 0 50 0;
#X connect 47 1 51 1;
#X connect 48 0 54 0;
#X connect 48 1 52 0;
#X connect 48 2 47 0;
#X connect 49 0 53 0;
#X connect 50 0 46 0;
#X connect 52 0 49 1;
#X connect 54 0 49 0;
#X restore 450 240 pd keyconfig;
#X obj 920 359 array size \$0-sample;
#X obj 450 320 pack 0 0 0;
#X text 754 174 x * 2^(1/12);
#X text 754 224 x / 2^(1/12);
#N canvas 834 195 947 785 audio_engine 0;
#X obj 38 414 phasor~;
#X msg 38 203 1;
#X obj 38 228 / 5;
#X floatatom 38 253 5 0 0 0 - - - 0;
#X obj 39 440 *~;
#X obj 38 277 sig~;
#X obj 39 377 *~;
#X obj 39 548 *~;
#X msg 191 503 \$1 20;
#X obj 191 528 line~;
#X obj 99 420 r \$0-n_samples;
#X obj 39 505 tabread4~ \$0-sample;
#X obj 38 167 loadbang;
#X obj 288 230 pow;
#X msg 288 199 2;
#X obj 288 167 t b f;
#X obj 330 201 / 12;
#X floatatom 188 307 0 0 0 0 pitch - - 0;
#X obj 88 287 sel 1;
#X obj 88 317 f 0;
#X obj 188 57 unpack 0 0;
#X obj 188 117 moses 0;
#X obj 208 247 pow;
#X msg 208 207 2;
#X obj 238 217 / 12;
#X obj 188 177 t b b f;
#X obj 188 277 /;
#X obj 188 227 f 1;
#X obj 188 147 * -1;
#X obj 190 20 inlet;
#X obj 40 630 outlet~;
#X obj 39 578 *~;
#X obj 140 450 t b;
#X obj 270 540 trapez~;
#X obj 188 87 - 24;
#X connect 0 0 4 0;
#X connect 0 0 33 0;
#X connect 1 0 2 0;
#X connect 2 0 3 0;
#X connect 3 0 5 0;
#X connect 4 0 11 0;
#X connect 5 0 6 0;
#X connect 6 0 0 0;
#X connect 7 0 31 0;
#X connect 8 0 9 0;
#X connect 9 0 7 1;
#X connect 10 0 4 1;
#X connect 10 0 32 0;
#X connect 11 0 7 0;
#X connect 12 0 1 0;
#X connect 13 0 17 0;
#X connect 14 0 13 0;
#X connect 15 0 14 0;
#X connect 15 1 16 0;
#X connect 16 0 13 1;
#X connect 17 0 6 1;
#X connect 18 0 19 0;
#X connect 19 0 0 1;
#X connect 20 0 34 0;
#X connect 20 1 18 0;
#X connect 20 1 8 0;
#X connect 21 0 28 0;
#X connect 21 1 15 0;
#X connect 22 0 26 1;
#X connect 23 0 22 0;
#X connect 24 0 22 1;
#X connect 25 0 27 0;
#X connect 25 1 23 0;
#X connect 25 2 24 0;
#X connect 26 0 17 0;
#X connect 27 0 26 0;
#X connect 28 0 25 0;
#X connect 29 0 20 0;
#X connect 31 0 30 0;
#X connect 32 0 1 0;
#X connect 33 0 31 1;
#X connect 34 0 21 0;
#X restore 319 502 pd audio_engine;
#X obj 157 714 *~;
#X obj 450 430 route 1 2 3 4 5 6 7 8;
#X obj 920 140 t b b;
#X msg 1020 180 \; pd dsp 1;
#X msg 600 380 \$1 0 0;
#X msg 610 170 8;
#X obj 610 300 f;
#X obj 670 340 + 1;
#X obj 610 330 + 1;
#X msg 640 270 0;
#X obj 600 410 print;
#X obj 610 240 until;
#X obj 610 200 t f b;
#X obj 530 10 keyup;
#X floatatom 530 39 5 0 0 0 - - - 0;
#X obj 530 67 sel 49;
#X obj 157 644 *~ 1;
#X obj 490 360 print;
#X obj 450 280 poly 8 1;
#X obj 110 110 cnv 15 241 39 empty empty empty 20 12 0 14 #ffffff #404040 0;
#X text 120 120 PRESS 1 FOR 5 SECS RECORDING..., f 32;
#N canvas 834 195 947 785 audio_engine 0;
#X obj 38 414 phasor~;
#X msg 38 203 1;
#X obj 38 228 / 5;
#X floatatom 38 253 5 0 0 0 - - - 0;
#X obj 39 440 *~;
#X obj 38 277 sig~;
#X obj 39 377 *~;
#X obj 39 548 *~;
#X msg 191 503 \$1 20;
#X obj 191 528 line~;
#X obj 99 420 r \$0-n_samples;
#X obj 39 505 tabread4~ \$0-sample;
#X obj 38 167 loadbang;
#X obj 288 230 pow;
#X msg 288 199 2;
#X obj 288 167 t b f;
#X obj 330 201 / 12;
#X floatatom 188 307 0 0 0 0 pitch - - 0;
#X obj 88 287 sel 1;
#X obj 88 317 f 0;
#X obj 188 57 unpack 0 0;
#X obj 188 117 moses 0;
#X obj 208 247 pow;
#X msg 208 207 2;
#X obj 238 217 / 12;
#X obj 188 177 t b b f;
#X obj 188 277 /;
#X obj 188 227 f 1;
#X obj 188 147 * -1;
#X obj 190 20 inlet;
#X obj 40 630 outlet~;
#X obj 39 578 *~;
#X obj 140 450 t b;
#X obj 270 540 trapez~;
#X obj 188 87 - 24;
#X connect 0 0 4 0;
#X connect 0 0 33 0;
#X connect 1 0 2 0;
#X connect 2 0 3 0;
#X connect 3 0 5 0;
#X connect 4 0 11 0;
#X connect 5 0 6 0;
#X connect 6 0 0 0;
#X connect 7 0 31 0;
#X connect 8 0 9 0;
#X connect 9 0 7 1;
#X connect 10 0 4 1;
#X connect 10 0 32 0;
#X connect 11 0 7 0;
#X connect 12 0 1 0;
#X connect 13 0 17 0;
#X connect 14 0 13 0;
#X connect 15 0 14 0;
#X connect 15 1 16 0;
#X connect 16 0 13 1;
#X connect 17 0 6 1;
#X connect 18 0 19 0;
#X connect 19 0 0 1;
#X connect 20 0 34 0;
#X connect 20 1 18 0;
#X connect 20 1 8 0;
#X connect 21 0 28 0;
#X connect 21 1 15 0;
#X connect 22 0 26 1;
#X connect 23 0 22 0;
#X connect 24 0 22 1;
#X connect 25 0 27 0;
#X connect 25 1 23 0;
#X connect 25 2 24 0;
#X connect 26 0 17 0;
#X connect 27 0 26 0;
#X connect 28 0 25 0;
#X connect 29 0 20 0;
#X connect 31 0 30 0;
#X connect 32 0 1 0;
#X connect 33 0 31 1;
#X connect 34 0 21 0;
#X restore 436 502 pd audio_engine;
#N canvas 834 195 947 785 audio_engine 0;
#X obj 38 414 phasor~;
#X msg 38 203 1;
#X obj 38 228 / 5;
#X floatatom 38 253 5 0 0 0 - - - 0;
#X obj 39 440 *~;
#X obj 38 277 sig~;
#X obj 39 377 *~;
#X obj 39 548 *~;
#X msg 191 503 \$1 20;
#X obj 191 528 line~;
#X obj 99 420 r \$0-n_samples;
#X obj 39 505 tabread4~ \$0-sample;
#X obj 38 167 loadbang;
#X obj 288 230 pow;
#X msg 288 199 2;
#X obj 288 167 t b f;
#X obj 330 201 / 12;
#X floatatom 188 307 0 0 0 0 pitch - - 0;
#X obj 88 287 sel 1;
#X obj 88 317 f 0;
#X obj 188 57 unpack 0 0;
#X obj 188 117 moses 0;
#X obj 208 247 pow;
#X msg 208 207 2;
#X obj 238 217 / 12;
#X obj 188 177 t b b f;
#X obj 188 277 /;
#X obj 188 227 f 1;
#X obj 188 147 * -1;
#X obj 190 20 inlet;
#X obj 40 630 outlet~;
#X obj 39 578 *~;
#X obj 140 450 t b;
#X obj 270 540 trapez~;
#X obj 188 87 - 24;
#X connect 0 0 4 0;
#X connect 0 0 33 0;
#X connect 1 0 2 0;
#X connect 2 0 3 0;
#X connect 3 0 5 0;
#X connect 4 0 11 0;
#X connect 5 0 6 0;
#X connect 6 0 0 0;
#X connect 7 0 31 0;
#X connect 8 0 9 0;
#X connect 9 0 7 1;
#X connect 10 0 4 1;
#X connect 10 0 32 0;
#X connect 11 0 7 0;
#X connect 12 0 1 0;
#X connect 13 0 17 0;
#X connect 14 0 13 0;
#X connect 15 0 14 0;
#X connect 15 1 16 0;
#X connect 16 0 13 1;
#X connect 17 0 6 1;
#X connect 18 0 19 0;
#X connect 19 0 0 1;
#X connect 20 0 34 0;
#X connect 20 1 18 0;
#X connect 20 1 8 0;
#X connect 21 0 28 0;
#X connect 21 1 15 0;
#X connect 22 0 26 1;
#X connect 23 0 22 0;
#X connect 24 0 22 1;
#X connect 25 0 27 0;
#X connect 25 1 23 0;
#X connect 25 2 24 0;
#X connect 26 0 17 0;
#X connect 27 0 26 0;
#X connect 28 0 25 0;
#X connect 29 0 20 0;
#X connect 31 0 30 0;
#X connect 32 0 1 0;
#X connect 33 0 31 1;
#X connect 34 0 21 0;
#X restore 551 503 pd audio_engine;
#N canvas 834 195 947 785 audio_engine 0;
#X obj 38 414 phasor~;
#X msg 38 203 1;
#X obj 38 228 / 5;
#X floatatom 38 253 5 0 0 0 - - - 0;
#X obj 39 440 *~;
#X obj 38 277 sig~;
#X obj 39 377 *~;
#X obj 39 548 *~;
#X msg 191 503 \$1 20;
#X obj 191 528 line~;
#X obj 99 420 r \$0-n_samples;
#X obj 39 505 tabread4~ \$0-sample;
#X obj 38 167 loadbang;
#X obj 288 230 pow;
#X msg 288 199 2;
#X obj 288 167 t b f;
#X obj 330 201 / 12;
#X floatatom 188 307 0 0 0 0 pitch - - 0;
#X obj 88 287 sel 1;
#X obj 88 317 f 0;
#X obj 188 57 unpack 0 0;
#X obj 188 117 moses 0;
#X obj 208 247 pow;
#X msg 208 207 2;
#X obj 238 217 / 12;
#X obj 188 177 t b b f;
#X obj 188 277 /;
#X obj 188 227 f 1;
#X obj 188 147 * -1;
#X obj 190 20 inlet;
#X obj 40 630 outlet~;
#X obj 39 578 *~;
#X obj 140 450 t b;
#X obj 270 540 trapez~;
#X obj 188 87 - 24;
#X connect 0 0 4 0;
#X connect 0 0 33 0;
#X connect 1 0 2 0;
#X connect 2 0 3 0;
#X connect 3 0 5 0;
#X connect 4 0 11 0;
#X connect 5 0 6 0;
#X connect 6 0 0 0;
#X connect 7 0 31 0;
#X connect 8 0 9 0;
#X connect 9 0 7 1;
#X connect 10 0 4 1;
#X connect 10 0 32 0;
#X connect 11 0 7 0;
#X connect 12 0 1 0;
#X connect 13 0 17 0;
#X connect 14 0 13 0;
#X connect 15 0 14 0;
#X connect 15 1 16 0;
#X connect 16 0 13 1;
#X connect 17 0 6 1;
#X connect 18 0 19 0;
#X connect 19 0 0 1;
#X connect 20 0 34 0;
#X connect 20 1 18 0;
#X connect 20 1 8 0;
#X connect 21 0 28 0;
#X connect 21 1 15 0;
#X connect 22 0 26 1;
#X connect 23 0 22 0;
#X connect 24 0 22 1;
#X connect 25 0 27 0;
#X connect 25 1 23 0;
#X connect 25 2 24 0;
#X connect 26 0 17 0;
#X connect 27 0 26 0;
#X connect 28 0 25 0;
#X connect 29 0 20 0;
#X connect 31 0 30 0;
#X connect 32 0 1 0;
#X connect 33 0 31 1;
#X connect 34 0 21 0;
#X restore 668 503 pd audio_engine;
#N canvas 834 195 947 785 audio_engine 0;
#X obj 38 414 phasor~;
#X msg 38 203 1;
#X obj 38 228 / 5;
#X floatatom 38 253 5 0 0 0 - - - 0;
#X obj 39 440 *~;
#X obj 38 277 sig~;
#X obj 39 377 *~;
#X obj 39 548 *~;
#X msg 191 503 \$1 20;
#X obj 191 528 line~;
#X obj 99 420 r \$0-n_samples;
#X obj 39 505 tabread4~ \$0-sample;
#X obj 38 167 loadbang;
#X obj 288 230 pow;
#X msg 288 199 2;
#X obj 288 167 t b f;
#X obj 330 201 / 12;
#X floatatom 188 307 0 0 0 0 pitch - - 0;
#X obj 88 287 sel 1;
#X obj 88 317 f 0;
#X obj 188 57 unpack 0 0;
#X obj 188 117 moses 0;
#X obj 208 247 pow;
#X msg 208 207 2;
#X obj 238 217 / 12;
#X obj 188 177 t b b f;
#X obj 188 277 /;
#X obj 188 227 f 1;
#X obj 188 147 * -1;
#X obj 190 20 inlet;
#X obj 40 630 outlet~;
#X obj 39 578 *~;
#X obj 140 450 t b;
#X obj 270 540 trapez~;
#X obj 188 87 - 24;
#X connect 0 0 4 0;
#X connect 0 0 33 0;
#X connect 1 0 2 0;
#X connect 2 0 3 0;
#X connect 3 0 5 0;
#X connect 4 0 11 0;
#X connect 5 0 6 0;
#X connect 6 0 0 0;
#X connect 7 0 31 0;
#X connect 8 0 9 0;
#X connect 9 0 7 1;
#X connect 10 0 4 1;
#X connect 10 0 32 0;
#X connect 11 0 7 0;
#X connect 12 0 1 0;
#X connect 13 0 17 0;
#X connect 14 0 13 0;
#X connect 15 0 14 0;
#X connect 15 1 16 0;
#X connect 16 0 13 1;
#X connect 17 0 6 1;
#X connect 18 0 19 0;
#X connect 19 0 0 1;
#X connect 20 0 34 0;
#X connect 20 1 18 0;
#X connect 20 1 8 0;
#X connect 21 0 28 0;
#X connect 21 1 15 0;
#X connect 22 0 26 1;
#X connect 23 0 22 0;
#X connect 24 0 22 1;
#X connect 25 0 27 0;
#X connect 25 1 23 0;
#X connect 25 2 24 0;
#X connect 26 0 17 0;
#X connect 27 0 26 0;
#X connect 28 0 25 0;
#X connect 29 0 20 0;
#X connect 31 0 30 0;
#X connect 32 0 1 0;
#X connect 33 0 31 1;
#X connect 34 0 21 0;
#X restore 785 503 pd audio_engine;
#N canvas 834 195 947 785 audio_engine 0;
#X obj 38 414 phasor~;
#X msg 38 203 1;
#X obj 38 228 / 5;
#X floatatom 38 253 5 0 0 0 - - - 0;
#X obj 39 440 *~;
#X obj 38 277 sig~;
#X obj 39 377 *~;
#X obj 39 548 *~;
#X msg 191 503 \$1 20;
#X obj 191 528 line~;
#X obj 99 420 r \$0-n_samples;
#X obj 39 505 tabread4~ \$0-sample;
#X obj 38 167 loadbang;
#X obj 288 230 pow;
#X msg 288 199 2;
#X obj 288 167 t b f;
#X obj 330 201 / 12;
#X floatatom 188 307 0 0 0 0 pitch - - 0;
#X obj 88 287 sel 1;
#X obj 88 317 f 0;
#X obj 188 57 unpack 0 0;
#X obj 188 117 moses 0;
#X obj 208 247 pow;
#X msg 208 207 2;
#X obj 238 217 / 12;
#X obj 188 177 t b b f;
#X obj 188 277 /;
#X obj 188 227 f 1;
#X obj 188 147 * -1;
#X obj 190 20 inlet;
#X obj 40 630 outlet~;
#X obj 39 578 *~;
#X obj 140 450 t b;
#X obj 270 540 trapez~;
#X obj 188 87 - 24;
#X connect 0 0 4 0;
#X connect 0 0 33 0;
#X connect 1 0 2 0;
#X connect 2 0 3 0;
#X connect 3 0 5 0;
#X connect 4 0 11 0;
#X connect 5 0 6 0;
#X connect 6 0 0 0;
#X connect 7 0 31 0;
#X connect 8 0 9 0;
#X connect 9 0 7 1;
#X connect 10 0 4 1;
#X connect 10 0 32 0;
#X connect 11 0 7 0;
#X connect 12 0 1 0;
#X connect 13 0 17 0;
#X connect 14 0 13 0;
#X connect 15 0 14 0;
#X connect 15 1 16 0;
#X connect 16 0 13 1;
#X connect 17 0 6 1;
#X connect 18 0 19 0;
#X connect 19 0 0 1;
#X connect 20 0 34 0;
#X connect 20 1 18 0;
#X connect 20 1 8 0;
#X connect 21 0 28 0;
#X connect 21 1 15 0;
#X connect 22 0 26 1;
#X connect 23 0 22 0;
#X connect 24 0 22 1;
#X connect 25 0 27 0;
#X connect 25 1 23 0;
#X connect 25 2 24 0;
#X connect 26 0 17 0;
#X connect 27 0 26 0;
#X connect 28 0 25 0;
#X connect 29 0 20 0;
#X connect 31 0 30 0;
#X connect 32 0 1 0;
#X connect 33 0 31 1;
#X connect 34 0 21 0;
#X restore 902 503 pd audio_engine;
#N canvas 834 195 947 785 audio_engine 0;
#X obj 38 414 phasor~;
#X msg 38 203 1;
#X obj 38 228 / 5;
#X floatatom 38 253 5 0 0 0 - - - 0;
#X obj 39 440 *~;
#X obj 38 277 sig~;
#X obj 39 377 *~;
#X obj 39 548 *~;
#X msg 191 503 \$1 20;
#X obj 191 528 line~;
#X obj 99 420 r \$0-n_samples;
#X obj 39 505 tabread4~ \$0-sample;
#X obj 38 167 loadbang;
#X obj 288 230 pow;
#X msg 288 199 2;
#X obj 288 167 t b f;
#X obj 330 201 / 12;
#X floatatom 188 307 0 0 0 0 pitch - - 0;
#X obj 88 287 sel 1;
#X obj 88 317 f 0;
#X obj 188 57 unpack 0 0;
#X obj 188 117 moses 0;
#X obj 208 247 pow;
#X msg 208 207 2;
#X obj 238 217 / 12;
#X obj 188 177 t b b f;
#X obj 188 277 /;
#X obj 188 227 f 1;
#X obj 188 147 * -1;
#X obj 190 20 inlet;
#X obj 40 630 outlet~;
#X obj 39 578 *~;
#X obj 140 450 t b;
#X obj 270 540 trapez~;
#X obj 188 87 - 24;
#X connect 0 0 4 0;
#X connect 0 0 33 0;
#X connect 1 0 2 0;
#X connect 2 0 3 0;
#X connect 3 0 5 0;
#X connect 4 0 11 0;
#X connect 5 0 6 0;
#X connect 6 0 0 0;
#X connect 7 0 31 0;
#X connect 8 0 9 0;
#X connect 9 0 7 1;
#X connect 10 0 4 1;
#X connect 10 0 32 0;
#X connect 11 0 7 0;
#X connect 12 0 1 0;
#X connect 13 0 17 0;
#X connect 14 0 13 0;
#X connect 15 0 14 0;
#X connect 15 1 16 0;
#X connect 16 0 13 1;
#X connect 17 0 6 1;
#X connect 18 0 19 0;
#X connect 19 0 0 1;
#X connect 20 0 34 0;
#X connect 20 1 18 0;
#X connect 20 1 8 0;
#X connect 21 0 28 0;
#X connect 21 1 15 0;
#X connect 22 0 26 1;
#X connect 23 0 22 0;
#X connect 24 0 22 1;
#X connect 25 0 27 0;
#X connect 25 1 23 0;
#X connect 25 2 24 0;
#X connect 26 0 17 0;
#X connect 27 0 26 0;
#X connect 28 0 25 0;
#X connect 29 0 20 0;
#X connect 31 0 30 0;
#X connect 32 0 1 0;
#X connect 33 0 31 1;
#X connect 34 0 21 0;
#X restore 1017 504 pd audio_engine;
#N canvas 834 195 947 785 audio_engine 0;
#X obj 38 414 phasor~;
#X msg 38 203 1;
#X obj 38 228 / 5;
#X floatatom 38 253 5 0 0 0 - - - 0;
#X obj 39 440 *~;
#X obj 38 277 sig~;
#X obj 39 377 *~;
#X obj 39 548 *~;
#X msg 191 503 \$1 20;
#X obj 191 528 line~;
#X obj 99 420 r \$0-n_samples;
#X obj 39 505 tabread4~ \$0-sample;
#X obj 38 167 loadbang;
#X obj 288 230 pow;
#X msg 288 199 2;
#X obj 288 167 t b f;
#X obj 330 201 / 12;
#X floatatom 188 307 0 0 0 0 pitch - - 0;
#X obj 88 287 sel 1;
#X obj 88 317 f 0;
#X obj 188 57 unpack 0 0;
#X obj 188 117 moses 0;
#X obj 208 247 pow;
#X msg 208 207 2;
#X obj 238 217 / 12;
#X obj 188 177 t b b f;
#X obj 188 277 /;
#X obj 188 227 f 1;
#X obj 188 147 * -1;
#X obj 190 20 inlet;
#X obj 40 630 outlet~;
#X obj 39 578 *~;
#X obj 140 450 t b;
#X obj 270 540 trapez~;
#X obj 188 87 - 24;
#X connect 0 0 4 0;
#X connect 0 0 33 0;
#X connect 1 0 2 0;
#X connect 2 0 3 0;
#X connect 3 0 5 0;
#X connect 4 0 11 0;
#X connect 5 0 6 0;
#X connect 6 0 0 0;
#X connect 7 0 31 0;
#X connect 8 0 9 0;
#X connect 9 0 7 1;
#X connect 10 0 4 1;
#X connect 10 0 32 0;
#X connect 11 0 7 0;
#X connect 12 0 1 0;
#X connect 13 0 17 0;
#X connect 14 0 13 0;
#X connect 15 0 14 0;
#X connect 15 1 16 0;
#X connect 16 0 13 1;
#X connect 17 0 6 1;
#X connect 18 0 19 0;
#X connect 19 0 0 1;
#X connect 20 0 34 0;
#X connect 20 1 18 0;
#X connect 20 1 8 0;
#X connect 21 0 28 0;
#X connect 21 1 15 0;
#X connect 22 0 26 1;
#X connect 23 0 22 0;
#X connect 24 0 22 1;
#X connect 25 0 27 0;
#X connect 25 1 23 0;
#X connect 25 2 24 0;
#X connect 26 0 17 0;
#X connect 27 0 26 0;
#X connect 28 0 25 0;
#X connect 29 0 20 0;
#X connect 31 0 30 0;
#X connect 32 0 1 0;
#X connect 33 0 31 1;
#X connect 34 0 21 0;
#X restore 1134 504 pd audio_engine;
#X connect 1 0 40 0;
#X connect 2 0 26 0;
#X connect 3 0 4 0;
#X connect 4 0 15 0;
#X connect 4 0 19 0;
#X connect 5 0 3 0;
#X connect 6 0 24 1;
#X connect 7 0 6 0;
#X connect 8 0 17 0;
#X connect 9 0 7 0;
#X connect 9 0 8 0;
#X connect 9 0 10 0;
#X connect 10 0 11 0;
#X connect 11 0 6 0;
#X connect 14 0 13 0;
#X connect 14 0 13 1;
#X connect 18 0 42 0;
#X connect 20 0 41 0;
#X connect 20 0 25 0;
#X connect 23 0 14 0;
#X connect 24 0 17 0;
#X connect 25 0 23 0;
#X connect 25 1 45 0;
#X connect 25 2 46 0;
#X connect 25 3 47 0;
#X connect 25 4 48 0;
#X connect 25 5 49 0;
#X connect 25 6 50 0;
#X connect 25 7 51 0;
#X connect 26 0 3 0;
#X connect 26 1 27 0;
#X connect 28 0 25 0;
#X connect 28 0 34 0;
#X connect 29 0 36 0;
#X connect 30 0 31 0;
#X connect 30 0 32 0;
#X connect 31 0 30 1;
#X connect 32 0 28 0;
#X connect 33 0 30 1;
#X connect 35 0 30 0;
#X connect 36 0 35 0;
#X connect 36 1 33 0;
#X connect 37 0 38 0;
#X connect 38 0 39 0;
#X connect 39 0 9 0;
#X connect 40 0 24 0;
#X connect 42 0 20 0;
#X connect 42 1 20 1;
#X connect 42 2 20 2;
#X connect 45 0 14 0;
#X connect 46 0 14 0;
#X connect 47 0 14 0;
#X connect 48 0 14 0;
#X connect 49 0 14 0;
#X connect 50 0 14 0;
#X connect 51 0 14 0;
#X coords 0 -1 1 1 260 260 1 100 99;
