#N canvas 496 267 1192 646 12;
#X obj 192 154 expr~ if($v1 < 0.01 \, $v1*100 \, 1);
#X obj 233 230 min~;
#X obj 283 189 expr~ if($v1 > 0.99 \, (1-$v1)*100 \, 1);
#X obj 193 63 inlet~;
#X obj 233 255 outlet~;
#X connect 0 0 1 0;
#X connect 1 0 4 0;
#X connect 2 0 1 1;
#X connect 3 0 0 0;
#X connect 3 0 2 0;
