#N canvas 496 267 1192 646 12;
#X obj 233 230 min~;
#X obj 193 63 inlet~;
#X obj 233 255 outlet~;
#X obj 192 154 expr~ if($v1 < 0.001 \, $v1*1000 \, 1);
#X obj 283 189 expr~ if($v1 > 0.999 \, (1-$v1)*1000 \, 1);
#X connect 0 0 2 0;
#X connect 1 0 3 0;
#X connect 1 0 4 0;
#X connect 3 0 0 0;
#X connect 4 0 0 1;
