#N canvas 823 30 1000 981 12;
#X obj 20 60 adc~ 1;
#X obj 800 110 loadbang;
#X obj 800 220 samplerate~;
#X obj 800 270 * 5;
#X obj 874 112 bng 25 250 50 0 empty empty empty 17 7 0 10 #e4e4e4
#4c4c4c #343434;
#X obj 112 139 line~;
#X msg 167 114 0 \, 1 15;
#X obj 239 148 del 15;
#X obj 239 61 bng 45 250 50 0 empty empty empty 17 7 0 10 #fcfcfc #000000
#000000;
#X obj 112 72 del 5015;
#X msg 112 103 0 15;
#X text 466 106 x * 2^(1/12);
#X obj 402 740 dac~;
#X obj 16 474 dac~;
#X obj 26 371 bng 15 250 50 0 empty empty empty 17 7 0 10 #fcfcfc #000000
#000000;
#X obj 410 690 *~ 0.75;
#X obj 810 315 s \$0-n_samples;
#X obj 420 60 array define \$0-sample 100;
#X obj 20 288 tabwrite~ \$0-sample;
#N canvas 250 213 947 741 keyconfig 0;
#X obj 180 530 outlet;
#X floatatom 100 150 5 0 0 0 - - -, f 5;
#N canvas 0 0 450 300 (subpatch) 0;
#X array \$0-keyboard 128 float 3 black black;
#A 0 0 0 0 0 0 0 0 0 0 0 0 0 0 0 0 0 0 0 0 0 0 0 0 0 0 0 0 0 0 0 0
0 0 0 0 0 0 0 0 22 0 0 0 0 31 0 32 33 0 0 0 0 0 0 0 0 0 0 0 21 0 0
0 0 0 0 0 0 0 0 0 0 0 0 0 0 0 0 0 0 0 0 0 0 0 0 0 0 0 0 0 10 0 11 0
0 0 12 28 26 14 2 15 16 17 7 18 19 20 30 29 8 9 0 3 13 4 6 27 1 25
5 24 0 0 0 0 0;
#X coords 0 33 128 0 200 140 1;
#X restore 550 60 graph;
#X obj 410 380 tabwrite \$0-keyboard;
#X obj 140 230 tabread \$0-keyboard;
#X msg 410 280 0 113 \, 1 119 \, 2 101 \, 3 114 \, 4 116 \, 5 121 \,
6 117 \, 7 105 \, 8 111 \, 9 112 \, 10 91 \, 11 93 \, 12 97 \, 13 115
\, 14 100 \, 15 102 \, 16 103 \, 17 104 \, 18 106 \, 19 107 \, 20 108
\, 21 59 \, 22 39 \, 24 122 \, 25 120 \, 26 99 \, 27 118 \, 28 98 \,
29 110 \, 30 109 \, 31 44 \, 32 46 \, 33 47;
#X msg 470 220 const 0;
#X obj 470 250 s \$0-keyboard;
#X obj 410 170 loadbang;
#X obj 410 200 t b b;
#X obj 210 80 keyup;
#X obj 100 110 t f b;
#X obj 210 110 t f b;
#X msg 150 140 1;
#X msg 250 140 0;
#X obj 180 400 pack 0 0;
#X obj 100 80 key 0;
#X obj 60 200 t f f;
#X obj 150 290 sel 0;
#X obj 40 260 sel 113;
#X obj 40 290 f 0;
#X obj 138 343 + 12;
#X connect 1 0 17 0;
#X connect 4 0 18 0;
#X connect 4 0 21 0;
#X connect 5 0 3 0;
#X connect 6 0 7 0;
#X connect 8 0 9 0;
#X connect 9 0 5 0;
#X connect 9 1 6 0;
#X connect 10 0 12 0;
#X connect 11 0 1 0;
#X connect 11 1 13 0;
#X connect 12 0 1 0;
#X connect 12 1 14 0;
#X connect 13 0 15 1;
#X connect 14 0 15 1;
#X connect 15 0 0 0;
#X connect 16 0 11 0;
#X connect 17 0 19 0;
#X connect 17 1 4 0;
#X connect 19 0 20 0;
#X connect 21 0 15 0;
#X restore 330 240 pd keyconfig;
#X obj 800 359 array size \$0-sample;
#X obj 330 320 pack 0 0 0;
#X text 634 174 x * 2^(1/12);
#X text 634 224 x / 2^(1/12);
#X obj 15 432 tabplay~ \$0-sample;
#N canvas 834 193 947 782 audio_engine 0;
#X obj 38 414 phasor~;
#X msg 38 203 1;
#X obj 38 228 / 5;
#X floatatom 38 253 5 0 0 0 - - -, f 5;
#X obj 39 440 *~;
#X obj 38 277 sig~;
#X obj 39 377 *~;
#X obj 39 548 *~;
#X msg 191 503 \$1 20;
#X obj 191 528 line~;
#X obj 99 420 r \$0-n_samples;
#X obj 39 505 tabread4~ \$0-sample;
#X obj 38 167 loadbang;
#X obj 288 230 pow;
#X msg 288 199 2;
#X obj 288 167 t b f;
#X obj 330 201 / 12;
#X floatatom 188 307 0 0 0 0 pitch - -;
#X obj 88 287 sel 1;
#X obj 88 317 f 0;
#X obj 188 57 unpack 0 0;
#X obj 188 87 - 12;
#X obj 188 117 moses 0;
#X obj 208 247 pow;
#X msg 208 207 2;
#X obj 238 217 / 12;
#X obj 188 177 t b b f;
#X obj 188 277 /;
#X obj 188 227 f 1;
#X obj 188 147 * -1;
#X obj 190 20 inlet;
#X obj 40 630 outlet~;
#X obj 39 578 *~;
#X obj 140 450 t b;
#X obj 270 540 trapezoid~ 0.01 0.99;
#X connect 0 0 4 0;
#X connect 0 0 34 0;
#X connect 1 0 2 0;
#X connect 2 0 3 0;
#X connect 3 0 5 0;
#X connect 4 0 11 0;
#X connect 5 0 6 0;
#X connect 6 0 0 0;
#X connect 7 0 32 0;
#X connect 8 0 9 0;
#X connect 9 0 7 1;
#X connect 10 0 4 1;
#X connect 10 0 33 0;
#X connect 11 0 7 0;
#X connect 12 0 1 0;
#X connect 13 0 17 0;
#X connect 14 0 13 0;
#X connect 15 0 14 0;
#X connect 15 1 16 0;
#X connect 16 0 13 1;
#X connect 17 0 6 1;
#X connect 18 0 19 0;
#X connect 19 0 0 1;
#X connect 20 0 21 0;
#X connect 20 1 18 0;
#X connect 20 1 8 0;
#X connect 21 0 22 0;
#X connect 22 0 29 0;
#X connect 22 1 15 0;
#X connect 23 0 27 1;
#X connect 24 0 23 0;
#X connect 25 0 23 1;
#X connect 26 0 28 0;
#X connect 26 1 24 0;
#X connect 26 2 25 0;
#X connect 27 0 17 0;
#X connect 28 0 27 0;
#X connect 29 0 26 0;
#X connect 30 0 20 0;
#X connect 32 0 31 0;
#X connect 33 0 1 0;
#X connect 34 0 32 1;
#X restore 230 510 pd audio_engine;
#X obj 17 149 *~ 0.75;
#X obj 17 219 *~;
#X obj 800 443 array define \$0-env;
#X obj 770 383 array size \$0-env;
#X obj 330 430 route 1 2 3 4 5 6 7 8;
#X obj 800 140 t b b;
#X msg 900 180 \; pd dsp 1;
#X obj 360 380 print;
#X msg 480 380 \$1 0 0;
#X msg 490 170 8;
#X obj 490 300 f;
#X obj 550 340 + 1;
#X obj 490 330 + 1;
#X msg 520 270 0;
#N canvas 834 198 947 782 audio_engine 0;
#X obj 38 414 phasor~;
#X msg 38 203 1;
#X obj 38 228 / 5;
#X floatatom 38 253 5 0 0 0 - - -, f 5;
#X obj 39 440 *~;
#X obj 38 277 sig~;
#X obj 39 377 *~;
#X obj 39 548 *~;
#X msg 191 503 \$1 20;
#X obj 191 528 line~;
#X obj 99 420 r \$0-n_samples;
#X obj 39 505 tabread4~ \$0-sample;
#X obj 38 167 loadbang;
#X obj 288 230 pow;
#X msg 288 199 2;
#X obj 288 167 t b f;
#X obj 330 201 / 12;
#X floatatom 188 307 0 0 0 0 pitch - -;
#X obj 88 287 sel 1;
#X obj 88 317 f 0;
#X obj 188 57 unpack 0 0;
#X obj 188 117 moses 0;
#X obj 208 247 pow;
#X msg 208 207 2;
#X obj 238 217 / 12;
#X obj 188 177 t b b f;
#X obj 188 277 /;
#X obj 188 227 f 1;
#X obj 188 147 * -1;
#X obj 190 20 inlet;
#X obj 40 630 outlet~;
#X obj 39 578 *~;
#X obj 140 450 t b;
#X obj 270 540 trapezoid~ 0.001 0.999;
#X obj 188 87 - 24;
#X connect 0 0 4 0;
#X connect 0 0 33 0;
#X connect 1 0 2 0;
#X connect 2 0 3 0;
#X connect 3 0 5 0;
#X connect 4 0 11 0;
#X connect 5 0 6 0;
#X connect 6 0 0 0;
#X connect 7 0 31 0;
#X connect 8 0 9 0;
#X connect 9 0 7 1;
#X connect 10 0 4 1;
#X connect 10 0 32 0;
#X connect 11 0 7 0;
#X connect 12 0 1 0;
#X connect 13 0 17 0;
#X connect 14 0 13 0;
#X connect 15 0 14 0;
#X connect 15 1 16 0;
#X connect 16 0 13 1;
#X connect 17 0 6 1;
#X connect 18 0 19 0;
#X connect 19 0 0 1;
#X connect 20 0 34 0;
#X connect 20 1 18 0;
#X connect 20 1 8 0;
#X connect 21 0 28 0;
#X connect 21 1 15 0;
#X connect 22 0 26 1;
#X connect 23 0 22 0;
#X connect 24 0 22 1;
#X connect 25 0 27 0;
#X connect 25 1 23 0;
#X connect 25 2 24 0;
#X connect 26 0 17 0;
#X connect 27 0 26 0;
#X connect 28 0 25 0;
#X connect 29 0 20 0;
#X connect 31 0 30 0;
#X connect 32 0 1 0;
#X connect 33 0 31 1;
#X connect 34 0 21 0;
#X restore 230 510 pd audio_engine;
#X obj 480 410 print;
#X obj 490 240 until;
#X obj 490 200 t f b;
#N canvas 834 193 947 782 audio_engine 0;
#X obj 38 414 phasor~;
#X msg 38 203 1;
#X obj 38 228 / 5;
#X floatatom 38 253 5 0 0 0 - - -, f 5;
#X obj 39 440 *~;
#X obj 38 277 sig~;
#X obj 39 377 *~;
#X obj 39 548 *~;
#X msg 191 503 \$1 20;
#X obj 191 528 line~;
#X obj 99 420 r \$0-n_samples;
#X obj 39 505 tabread4~ \$0-sample;
#X obj 38 167 loadbang;
#X obj 288 230 pow;
#X msg 288 199 2;
#X obj 288 167 t b f;
#X obj 330 201 / 12;
#X floatatom 188 307 0 0 0 0 pitch - -;
#X obj 88 287 sel 1;
#X obj 88 317 f 0;
#X obj 188 57 unpack 0 0;
#X obj 188 87 - 12;
#X obj 188 117 moses 0;
#X obj 208 247 pow;
#X msg 208 207 2;
#X obj 238 217 / 12;
#X obj 188 177 t b b f;
#X obj 188 277 /;
#X obj 188 227 f 1;
#X obj 188 147 * -1;
#X obj 190 20 inlet;
#X obj 40 630 outlet~;
#X obj 39 578 *~;
#X obj 140 450 t b;
#X obj 270 540 trapezoid~ 0.01 0.99;
#X connect 0 0 4 0;
#X connect 0 0 34 0;
#X connect 1 0 2 0;
#X connect 2 0 3 0;
#X connect 3 0 5 0;
#X connect 4 0 11 0;
#X connect 5 0 6 0;
#X connect 6 0 0 0;
#X connect 7 0 32 0;
#X connect 8 0 9 0;
#X connect 9 0 7 1;
#X connect 10 0 4 1;
#X connect 10 0 33 0;
#X connect 11 0 7 0;
#X connect 12 0 1 0;
#X connect 13 0 17 0;
#X connect 14 0 13 0;
#X connect 15 0 14 0;
#X connect 15 1 16 0;
#X connect 16 0 13 1;
#X connect 17 0 6 1;
#X connect 18 0 19 0;
#X connect 19 0 0 1;
#X connect 20 0 21 0;
#X connect 20 1 18 0;
#X connect 20 1 8 0;
#X connect 21 0 22 0;
#X connect 22 0 29 0;
#X connect 22 1 15 0;
#X connect 23 0 27 1;
#X connect 24 0 23 0;
#X connect 25 0 23 1;
#X connect 26 0 28 0;
#X connect 26 1 24 0;
#X connect 26 2 25 0;
#X connect 27 0 17 0;
#X connect 28 0 27 0;
#X connect 29 0 26 0;
#X connect 30 0 20 0;
#X connect 32 0 31 0;
#X connect 33 0 1 0;
#X connect 34 0 32 1;
#X restore 344 514 pd audio_engine;
#N canvas 834 196 947 782 audio_engine 0;
#X obj 38 414 phasor~;
#X msg 38 203 1;
#X obj 38 228 / 5;
#X floatatom 38 253 5 0 0 0 - - -, f 5;
#X obj 39 440 *~;
#X obj 38 277 sig~;
#X obj 39 377 *~;
#X obj 39 548 *~;
#X msg 191 503 \$1 20;
#X obj 191 528 line~;
#X obj 99 420 r \$0-n_samples;
#X obj 39 505 tabread4~ \$0-sample;
#X obj 38 167 loadbang;
#X obj 288 230 pow;
#X msg 288 199 2;
#X obj 288 167 t b f;
#X obj 330 201 / 12;
#X floatatom 188 307 0 0 0 0 pitch - -;
#X obj 88 287 sel 1;
#X obj 88 317 f 0;
#X obj 188 57 unpack 0 0;
#X obj 188 117 moses 0;
#X obj 208 247 pow;
#X msg 208 207 2;
#X obj 238 217 / 12;
#X obj 188 177 t b b f;
#X obj 188 277 /;
#X obj 188 227 f 1;
#X obj 188 147 * -1;
#X obj 190 20 inlet;
#X obj 40 630 outlet~;
#X obj 39 578 *~;
#X obj 140 450 t b;
#X obj 270 540 trapezoid~ 0.001 0.999;
#X obj 188 87 - 24;
#X connect 0 0 4 0;
#X connect 0 0 33 0;
#X connect 1 0 2 0;
#X connect 2 0 3 0;
#X connect 3 0 5 0;
#X connect 4 0 11 0;
#X connect 5 0 6 0;
#X connect 6 0 0 0;
#X connect 7 0 31 0;
#X connect 8 0 9 0;
#X connect 9 0 7 1;
#X connect 10 0 4 1;
#X connect 10 0 32 0;
#X connect 11 0 7 0;
#X connect 12 0 1 0;
#X connect 13 0 17 0;
#X connect 14 0 13 0;
#X connect 15 0 14 0;
#X connect 15 1 16 0;
#X connect 16 0 13 1;
#X connect 17 0 6 1;
#X connect 18 0 19 0;
#X connect 19 0 0 1;
#X connect 20 0 34 0;
#X connect 20 1 18 0;
#X connect 20 1 8 0;
#X connect 21 0 28 0;
#X connect 21 1 15 0;
#X connect 22 0 26 1;
#X connect 23 0 22 0;
#X connect 24 0 22 1;
#X connect 25 0 27 0;
#X connect 25 1 23 0;
#X connect 25 2 24 0;
#X connect 26 0 17 0;
#X connect 27 0 26 0;
#X connect 28 0 25 0;
#X connect 29 0 20 0;
#X connect 31 0 30 0;
#X connect 32 0 1 0;
#X connect 33 0 31 1;
#X connect 34 0 21 0;
#X restore 344 514 pd audio_engine;
#N canvas 834 193 947 782 audio_engine 0;
#X obj 38 414 phasor~;
#X msg 38 203 1;
#X obj 38 228 / 5;
#X floatatom 38 253 5 0 0 0 - - -, f 5;
#X obj 39 440 *~;
#X obj 38 277 sig~;
#X obj 39 377 *~;
#X obj 39 548 *~;
#X msg 191 503 \$1 20;
#X obj 191 528 line~;
#X obj 99 420 r \$0-n_samples;
#X obj 39 505 tabread4~ \$0-sample;
#X obj 38 167 loadbang;
#X obj 288 230 pow;
#X msg 288 199 2;
#X obj 288 167 t b f;
#X obj 330 201 / 12;
#X floatatom 188 307 0 0 0 0 pitch - -;
#X obj 88 287 sel 1;
#X obj 88 317 f 0;
#X obj 188 57 unpack 0 0;
#X obj 188 87 - 12;
#X obj 188 117 moses 0;
#X obj 208 247 pow;
#X msg 208 207 2;
#X obj 238 217 / 12;
#X obj 188 177 t b b f;
#X obj 188 277 /;
#X obj 188 227 f 1;
#X obj 188 147 * -1;
#X obj 190 20 inlet;
#X obj 40 630 outlet~;
#X obj 39 578 *~;
#X obj 140 450 t b;
#X obj 270 540 trapezoid~ 0.01 0.99;
#X connect 0 0 4 0;
#X connect 0 0 34 0;
#X connect 1 0 2 0;
#X connect 2 0 3 0;
#X connect 3 0 5 0;
#X connect 4 0 11 0;
#X connect 5 0 6 0;
#X connect 6 0 0 0;
#X connect 7 0 32 0;
#X connect 8 0 9 0;
#X connect 9 0 7 1;
#X connect 10 0 4 1;
#X connect 10 0 33 0;
#X connect 11 0 7 0;
#X connect 12 0 1 0;
#X connect 13 0 17 0;
#X connect 14 0 13 0;
#X connect 15 0 14 0;
#X connect 15 1 16 0;
#X connect 16 0 13 1;
#X connect 17 0 6 1;
#X connect 18 0 19 0;
#X connect 19 0 0 1;
#X connect 20 0 21 0;
#X connect 20 1 18 0;
#X connect 20 1 8 0;
#X connect 21 0 22 0;
#X connect 22 0 29 0;
#X connect 22 1 15 0;
#X connect 23 0 27 1;
#X connect 24 0 23 0;
#X connect 25 0 23 1;
#X connect 26 0 28 0;
#X connect 26 1 24 0;
#X connect 26 2 25 0;
#X connect 27 0 17 0;
#X connect 28 0 27 0;
#X connect 29 0 26 0;
#X connect 30 0 20 0;
#X connect 32 0 31 0;
#X connect 33 0 1 0;
#X connect 34 0 32 1;
#X restore 464 514 pd audio_engine;
#N canvas 834 196 947 782 audio_engine 0;
#X obj 38 414 phasor~;
#X msg 38 203 1;
#X obj 38 228 / 5;
#X floatatom 38 253 5 0 0 0 - - -, f 5;
#X obj 39 440 *~;
#X obj 38 277 sig~;
#X obj 39 377 *~;
#X obj 39 548 *~;
#X msg 191 503 \$1 20;
#X obj 191 528 line~;
#X obj 99 420 r \$0-n_samples;
#X obj 39 505 tabread4~ \$0-sample;
#X obj 38 167 loadbang;
#X obj 288 230 pow;
#X msg 288 199 2;
#X obj 288 167 t b f;
#X obj 330 201 / 12;
#X floatatom 188 307 0 0 0 0 pitch - -;
#X obj 88 287 sel 1;
#X obj 88 317 f 0;
#X obj 188 57 unpack 0 0;
#X obj 188 117 moses 0;
#X obj 208 247 pow;
#X msg 208 207 2;
#X obj 238 217 / 12;
#X obj 188 177 t b b f;
#X obj 188 277 /;
#X obj 188 227 f 1;
#X obj 188 147 * -1;
#X obj 190 20 inlet;
#X obj 40 630 outlet~;
#X obj 39 578 *~;
#X obj 140 450 t b;
#X obj 270 540 trapezoid~ 0.001 0.999;
#X obj 188 87 - 24;
#X connect 0 0 4 0;
#X connect 0 0 33 0;
#X connect 1 0 2 0;
#X connect 2 0 3 0;
#X connect 3 0 5 0;
#X connect 4 0 11 0;
#X connect 5 0 6 0;
#X connect 6 0 0 0;
#X connect 7 0 31 0;
#X connect 8 0 9 0;
#X connect 9 0 7 1;
#X connect 10 0 4 1;
#X connect 10 0 32 0;
#X connect 11 0 7 0;
#X connect 12 0 1 0;
#X connect 13 0 17 0;
#X connect 14 0 13 0;
#X connect 15 0 14 0;
#X connect 15 1 16 0;
#X connect 16 0 13 1;
#X connect 17 0 6 1;
#X connect 18 0 19 0;
#X connect 19 0 0 1;
#X connect 20 0 34 0;
#X connect 20 1 18 0;
#X connect 20 1 8 0;
#X connect 21 0 28 0;
#X connect 21 1 15 0;
#X connect 22 0 26 1;
#X connect 23 0 22 0;
#X connect 24 0 22 1;
#X connect 25 0 27 0;
#X connect 25 1 23 0;
#X connect 25 2 24 0;
#X connect 26 0 17 0;
#X connect 27 0 26 0;
#X connect 28 0 25 0;
#X connect 29 0 20 0;
#X connect 31 0 30 0;
#X connect 32 0 1 0;
#X connect 33 0 31 1;
#X connect 34 0 21 0;
#X restore 464 514 pd audio_engine;
#N canvas 834 193 947 782 audio_engine 0;
#X obj 38 414 phasor~;
#X msg 38 203 1;
#X obj 38 228 / 5;
#X floatatom 38 253 5 0 0 0 - - -, f 5;
#X obj 39 440 *~;
#X obj 38 277 sig~;
#X obj 39 377 *~;
#X obj 39 548 *~;
#X msg 191 503 \$1 20;
#X obj 191 528 line~;
#X obj 99 420 r \$0-n_samples;
#X obj 39 505 tabread4~ \$0-sample;
#X obj 38 167 loadbang;
#X obj 288 230 pow;
#X msg 288 199 2;
#X obj 288 167 t b f;
#X obj 330 201 / 12;
#X floatatom 188 307 0 0 0 0 pitch - -;
#X obj 88 287 sel 1;
#X obj 88 317 f 0;
#X obj 188 57 unpack 0 0;
#X obj 188 87 - 12;
#X obj 188 117 moses 0;
#X obj 208 247 pow;
#X msg 208 207 2;
#X obj 238 217 / 12;
#X obj 188 177 t b b f;
#X obj 188 277 /;
#X obj 188 227 f 1;
#X obj 188 147 * -1;
#X obj 190 20 inlet;
#X obj 40 630 outlet~;
#X obj 39 578 *~;
#X obj 140 450 t b;
#X obj 270 540 trapezoid~ 0.01 0.99;
#X connect 0 0 4 0;
#X connect 0 0 34 0;
#X connect 1 0 2 0;
#X connect 2 0 3 0;
#X connect 3 0 5 0;
#X connect 4 0 11 0;
#X connect 5 0 6 0;
#X connect 6 0 0 0;
#X connect 7 0 32 0;
#X connect 8 0 9 0;
#X connect 9 0 7 1;
#X connect 10 0 4 1;
#X connect 10 0 33 0;
#X connect 11 0 7 0;
#X connect 12 0 1 0;
#X connect 13 0 17 0;
#X connect 14 0 13 0;
#X connect 15 0 14 0;
#X connect 15 1 16 0;
#X connect 16 0 13 1;
#X connect 17 0 6 1;
#X connect 18 0 19 0;
#X connect 19 0 0 1;
#X connect 20 0 21 0;
#X connect 20 1 18 0;
#X connect 20 1 8 0;
#X connect 21 0 22 0;
#X connect 22 0 29 0;
#X connect 22 1 15 0;
#X connect 23 0 27 1;
#X connect 24 0 23 0;
#X connect 25 0 23 1;
#X connect 26 0 28 0;
#X connect 26 1 24 0;
#X connect 26 2 25 0;
#X connect 27 0 17 0;
#X connect 28 0 27 0;
#X connect 29 0 26 0;
#X connect 30 0 20 0;
#X connect 32 0 31 0;
#X connect 33 0 1 0;
#X connect 34 0 32 1;
#X restore 578 518 pd audio_engine;
#N canvas 834 196 947 782 audio_engine 0;
#X obj 38 414 phasor~;
#X msg 38 203 1;
#X obj 38 228 / 5;
#X floatatom 38 253 5 0 0 0 - - -, f 5;
#X obj 39 440 *~;
#X obj 38 277 sig~;
#X obj 39 377 *~;
#X obj 39 548 *~;
#X msg 191 503 \$1 20;
#X obj 191 528 line~;
#X obj 99 420 r \$0-n_samples;
#X obj 39 505 tabread4~ \$0-sample;
#X obj 38 167 loadbang;
#X obj 288 230 pow;
#X msg 288 199 2;
#X obj 288 167 t b f;
#X obj 330 201 / 12;
#X floatatom 188 307 0 0 0 0 pitch - -;
#X obj 88 287 sel 1;
#X obj 88 317 f 0;
#X obj 188 57 unpack 0 0;
#X obj 188 117 moses 0;
#X obj 208 247 pow;
#X msg 208 207 2;
#X obj 238 217 / 12;
#X obj 188 177 t b b f;
#X obj 188 277 /;
#X obj 188 227 f 1;
#X obj 188 147 * -1;
#X obj 190 20 inlet;
#X obj 40 630 outlet~;
#X obj 39 578 *~;
#X obj 140 450 t b;
#X obj 270 540 trapezoid~ 0.001 0.999;
#X obj 188 87 - 24;
#X connect 0 0 4 0;
#X connect 0 0 33 0;
#X connect 1 0 2 0;
#X connect 2 0 3 0;
#X connect 3 0 5 0;
#X connect 4 0 11 0;
#X connect 5 0 6 0;
#X connect 6 0 0 0;
#X connect 7 0 31 0;
#X connect 8 0 9 0;
#X connect 9 0 7 1;
#X connect 10 0 4 1;
#X connect 10 0 32 0;
#X connect 11 0 7 0;
#X connect 12 0 1 0;
#X connect 13 0 17 0;
#X connect 14 0 13 0;
#X connect 15 0 14 0;
#X connect 15 1 16 0;
#X connect 16 0 13 1;
#X connect 17 0 6 1;
#X connect 18 0 19 0;
#X connect 19 0 0 1;
#X connect 20 0 34 0;
#X connect 20 1 18 0;
#X connect 20 1 8 0;
#X connect 21 0 28 0;
#X connect 21 1 15 0;
#X connect 22 0 26 1;
#X connect 23 0 22 0;
#X connect 24 0 22 1;
#X connect 25 0 27 0;
#X connect 25 1 23 0;
#X connect 25 2 24 0;
#X connect 26 0 17 0;
#X connect 27 0 26 0;
#X connect 28 0 25 0;
#X connect 29 0 20 0;
#X connect 31 0 30 0;
#X connect 32 0 1 0;
#X connect 33 0 31 1;
#X connect 34 0 21 0;
#X restore 578 518 pd audio_engine;
#N canvas 834 193 947 782 audio_engine 0;
#X obj 38 414 phasor~;
#X msg 38 203 1;
#X obj 38 228 / 5;
#X floatatom 38 253 5 0 0 0 - - -, f 5;
#X obj 39 440 *~;
#X obj 38 277 sig~;
#X obj 39 377 *~;
#X obj 39 548 *~;
#X msg 191 503 \$1 20;
#X obj 191 528 line~;
#X obj 99 420 r \$0-n_samples;
#X obj 39 505 tabread4~ \$0-sample;
#X obj 38 167 loadbang;
#X obj 288 230 pow;
#X msg 288 199 2;
#X obj 288 167 t b f;
#X obj 330 201 / 12;
#X floatatom 188 307 0 0 0 0 pitch - -;
#X obj 88 287 sel 1;
#X obj 88 317 f 0;
#X obj 188 57 unpack 0 0;
#X obj 188 87 - 12;
#X obj 188 117 moses 0;
#X obj 208 247 pow;
#X msg 208 207 2;
#X obj 238 217 / 12;
#X obj 188 177 t b b f;
#X obj 188 277 /;
#X obj 188 227 f 1;
#X obj 188 147 * -1;
#X obj 190 20 inlet;
#X obj 40 630 outlet~;
#X obj 39 578 *~;
#X obj 140 450 t b;
#X obj 270 540 trapezoid~ 0.01 0.99;
#X connect 0 0 4 0;
#X connect 0 0 34 0;
#X connect 1 0 2 0;
#X connect 2 0 3 0;
#X connect 3 0 5 0;
#X connect 4 0 11 0;
#X connect 5 0 6 0;
#X connect 6 0 0 0;
#X connect 7 0 32 0;
#X connect 8 0 9 0;
#X connect 9 0 7 1;
#X connect 10 0 4 1;
#X connect 10 0 33 0;
#X connect 11 0 7 0;
#X connect 12 0 1 0;
#X connect 13 0 17 0;
#X connect 14 0 13 0;
#X connect 15 0 14 0;
#X connect 15 1 16 0;
#X connect 16 0 13 1;
#X connect 17 0 6 1;
#X connect 18 0 19 0;
#X connect 19 0 0 1;
#X connect 20 0 21 0;
#X connect 20 1 18 0;
#X connect 20 1 8 0;
#X connect 21 0 22 0;
#X connect 22 0 29 0;
#X connect 22 1 15 0;
#X connect 23 0 27 1;
#X connect 24 0 23 0;
#X connect 25 0 23 1;
#X connect 26 0 28 0;
#X connect 26 1 24 0;
#X connect 26 2 25 0;
#X connect 27 0 17 0;
#X connect 28 0 27 0;
#X connect 29 0 26 0;
#X connect 30 0 20 0;
#X connect 32 0 31 0;
#X connect 33 0 1 0;
#X connect 34 0 32 1;
#X restore 284 544 pd audio_engine;
#N canvas 834 196 947 782 audio_engine 0;
#X obj 38 414 phasor~;
#X msg 38 203 1;
#X obj 38 228 / 5;
#X floatatom 38 253 5 0 0 0 - - -, f 5;
#X obj 39 440 *~;
#X obj 38 277 sig~;
#X obj 39 377 *~;
#X obj 39 548 *~;
#X msg 191 503 \$1 20;
#X obj 191 528 line~;
#X obj 99 420 r \$0-n_samples;
#X obj 39 505 tabread4~ \$0-sample;
#X obj 38 167 loadbang;
#X obj 288 230 pow;
#X msg 288 199 2;
#X obj 288 167 t b f;
#X obj 330 201 / 12;
#X floatatom 188 307 0 0 0 0 pitch - -;
#X obj 88 287 sel 1;
#X obj 88 317 f 0;
#X obj 188 57 unpack 0 0;
#X obj 188 117 moses 0;
#X obj 208 247 pow;
#X msg 208 207 2;
#X obj 238 217 / 12;
#X obj 188 177 t b b f;
#X obj 188 277 /;
#X obj 188 227 f 1;
#X obj 188 147 * -1;
#X obj 190 20 inlet;
#X obj 40 630 outlet~;
#X obj 39 578 *~;
#X obj 140 450 t b;
#X obj 270 540 trapezoid~ 0.001 0.999;
#X obj 188 87 - 24;
#X connect 0 0 4 0;
#X connect 0 0 33 0;
#X connect 1 0 2 0;
#X connect 2 0 3 0;
#X connect 3 0 5 0;
#X connect 4 0 11 0;
#X connect 5 0 6 0;
#X connect 6 0 0 0;
#X connect 7 0 31 0;
#X connect 8 0 9 0;
#X connect 9 0 7 1;
#X connect 10 0 4 1;
#X connect 10 0 32 0;
#X connect 11 0 7 0;
#X connect 12 0 1 0;
#X connect 13 0 17 0;
#X connect 14 0 13 0;
#X connect 15 0 14 0;
#X connect 15 1 16 0;
#X connect 16 0 13 1;
#X connect 17 0 6 1;
#X connect 18 0 19 0;
#X connect 19 0 0 1;
#X connect 20 0 34 0;
#X connect 20 1 18 0;
#X connect 20 1 8 0;
#X connect 21 0 28 0;
#X connect 21 1 15 0;
#X connect 22 0 26 1;
#X connect 23 0 22 0;
#X connect 24 0 22 1;
#X connect 25 0 27 0;
#X connect 25 1 23 0;
#X connect 25 2 24 0;
#X connect 26 0 17 0;
#X connect 27 0 26 0;
#X connect 28 0 25 0;
#X connect 29 0 20 0;
#X connect 31 0 30 0;
#X connect 32 0 1 0;
#X connect 33 0 31 1;
#X connect 34 0 21 0;
#X restore 284 544 pd audio_engine;
#N canvas 834 193 947 782 audio_engine 0;
#X obj 38 414 phasor~;
#X msg 38 203 1;
#X obj 38 228 / 5;
#X floatatom 38 253 5 0 0 0 - - -, f 5;
#X obj 39 440 *~;
#X obj 38 277 sig~;
#X obj 39 377 *~;
#X obj 39 548 *~;
#X msg 191 503 \$1 20;
#X obj 191 528 line~;
#X obj 99 420 r \$0-n_samples;
#X obj 39 505 tabread4~ \$0-sample;
#X obj 38 167 loadbang;
#X obj 288 230 pow;
#X msg 288 199 2;
#X obj 288 167 t b f;
#X obj 330 201 / 12;
#X floatatom 188 307 0 0 0 0 pitch - -;
#X obj 88 287 sel 1;
#X obj 88 317 f 0;
#X obj 188 57 unpack 0 0;
#X obj 188 87 - 12;
#X obj 188 117 moses 0;
#X obj 208 247 pow;
#X msg 208 207 2;
#X obj 238 217 / 12;
#X obj 188 177 t b b f;
#X obj 188 277 /;
#X obj 188 227 f 1;
#X obj 188 147 * -1;
#X obj 190 20 inlet;
#X obj 40 630 outlet~;
#X obj 39 578 *~;
#X obj 140 450 t b;
#X obj 270 540 trapezoid~ 0.01 0.99;
#X connect 0 0 4 0;
#X connect 0 0 34 0;
#X connect 1 0 2 0;
#X connect 2 0 3 0;
#X connect 3 0 5 0;
#X connect 4 0 11 0;
#X connect 5 0 6 0;
#X connect 6 0 0 0;
#X connect 7 0 32 0;
#X connect 8 0 9 0;
#X connect 9 0 7 1;
#X connect 10 0 4 1;
#X connect 10 0 33 0;
#X connect 11 0 7 0;
#X connect 12 0 1 0;
#X connect 13 0 17 0;
#X connect 14 0 13 0;
#X connect 15 0 14 0;
#X connect 15 1 16 0;
#X connect 16 0 13 1;
#X connect 17 0 6 1;
#X connect 18 0 19 0;
#X connect 19 0 0 1;
#X connect 20 0 21 0;
#X connect 20 1 18 0;
#X connect 20 1 8 0;
#X connect 21 0 22 0;
#X connect 22 0 29 0;
#X connect 22 1 15 0;
#X connect 23 0 27 1;
#X connect 24 0 23 0;
#X connect 25 0 23 1;
#X connect 26 0 28 0;
#X connect 26 1 24 0;
#X connect 26 2 25 0;
#X connect 27 0 17 0;
#X connect 28 0 27 0;
#X connect 29 0 26 0;
#X connect 30 0 20 0;
#X connect 32 0 31 0;
#X connect 33 0 1 0;
#X connect 34 0 32 1;
#X restore 398 548 pd audio_engine;
#N canvas 834 196 947 782 audio_engine 0;
#X obj 38 414 phasor~;
#X msg 38 203 1;
#X obj 38 228 / 5;
#X floatatom 38 253 5 0 0 0 - - -, f 5;
#X obj 39 440 *~;
#X obj 38 277 sig~;
#X obj 39 377 *~;
#X obj 39 548 *~;
#X msg 191 503 \$1 20;
#X obj 191 528 line~;
#X obj 99 420 r \$0-n_samples;
#X obj 39 505 tabread4~ \$0-sample;
#X obj 38 167 loadbang;
#X obj 288 230 pow;
#X msg 288 199 2;
#X obj 288 167 t b f;
#X obj 330 201 / 12;
#X floatatom 188 307 0 0 0 0 pitch - -;
#X obj 88 287 sel 1;
#X obj 88 317 f 0;
#X obj 188 57 unpack 0 0;
#X obj 188 117 moses 0;
#X obj 208 247 pow;
#X msg 208 207 2;
#X obj 238 217 / 12;
#X obj 188 177 t b b f;
#X obj 188 277 /;
#X obj 188 227 f 1;
#X obj 188 147 * -1;
#X obj 190 20 inlet;
#X obj 40 630 outlet~;
#X obj 39 578 *~;
#X obj 140 450 t b;
#X obj 270 540 trapezoid~ 0.001 0.999;
#X obj 188 87 - 24;
#X connect 0 0 4 0;
#X connect 0 0 33 0;
#X connect 1 0 2 0;
#X connect 2 0 3 0;
#X connect 3 0 5 0;
#X connect 4 0 11 0;
#X connect 5 0 6 0;
#X connect 6 0 0 0;
#X connect 7 0 31 0;
#X connect 8 0 9 0;
#X connect 9 0 7 1;
#X connect 10 0 4 1;
#X connect 10 0 32 0;
#X connect 11 0 7 0;
#X connect 12 0 1 0;
#X connect 13 0 17 0;
#X connect 14 0 13 0;
#X connect 15 0 14 0;
#X connect 15 1 16 0;
#X connect 16 0 13 1;
#X connect 17 0 6 1;
#X connect 18 0 19 0;
#X connect 19 0 0 1;
#X connect 20 0 34 0;
#X connect 20 1 18 0;
#X connect 20 1 8 0;
#X connect 21 0 28 0;
#X connect 21 1 15 0;
#X connect 22 0 26 1;
#X connect 23 0 22 0;
#X connect 24 0 22 1;
#X connect 25 0 27 0;
#X connect 25 1 23 0;
#X connect 25 2 24 0;
#X connect 26 0 17 0;
#X connect 27 0 26 0;
#X connect 28 0 25 0;
#X connect 29 0 20 0;
#X connect 31 0 30 0;
#X connect 32 0 1 0;
#X connect 33 0 31 1;
#X connect 34 0 21 0;
#X restore 398 548 pd audio_engine;
#N canvas 834 193 947 782 audio_engine 0;
#X obj 38 414 phasor~;
#X msg 38 203 1;
#X obj 38 228 / 5;
#X floatatom 38 253 5 0 0 0 - - -, f 5;
#X obj 39 440 *~;
#X obj 38 277 sig~;
#X obj 39 377 *~;
#X obj 39 548 *~;
#X msg 191 503 \$1 20;
#X obj 191 528 line~;
#X obj 99 420 r \$0-n_samples;
#X obj 39 505 tabread4~ \$0-sample;
#X obj 38 167 loadbang;
#X obj 288 230 pow;
#X msg 288 199 2;
#X obj 288 167 t b f;
#X obj 330 201 / 12;
#X floatatom 188 307 0 0 0 0 pitch - -;
#X obj 88 287 sel 1;
#X obj 88 317 f 0;
#X obj 188 57 unpack 0 0;
#X obj 188 87 - 12;
#X obj 188 117 moses 0;
#X obj 208 247 pow;
#X msg 208 207 2;
#X obj 238 217 / 12;
#X obj 188 177 t b b f;
#X obj 188 277 /;
#X obj 188 227 f 1;
#X obj 188 147 * -1;
#X obj 190 20 inlet;
#X obj 40 630 outlet~;
#X obj 39 578 *~;
#X obj 140 450 t b;
#X obj 270 540 trapezoid~ 0.01 0.99;
#X connect 0 0 4 0;
#X connect 0 0 34 0;
#X connect 1 0 2 0;
#X connect 2 0 3 0;
#X connect 3 0 5 0;
#X connect 4 0 11 0;
#X connect 5 0 6 0;
#X connect 6 0 0 0;
#X connect 7 0 32 0;
#X connect 8 0 9 0;
#X connect 9 0 7 1;
#X connect 10 0 4 1;
#X connect 10 0 33 0;
#X connect 11 0 7 0;
#X connect 12 0 1 0;
#X connect 13 0 17 0;
#X connect 14 0 13 0;
#X connect 15 0 14 0;
#X connect 15 1 16 0;
#X connect 16 0 13 1;
#X connect 17 0 6 1;
#X connect 18 0 19 0;
#X connect 19 0 0 1;
#X connect 20 0 21 0;
#X connect 20 1 18 0;
#X connect 20 1 8 0;
#X connect 21 0 22 0;
#X connect 22 0 29 0;
#X connect 22 1 15 0;
#X connect 23 0 27 1;
#X connect 24 0 23 0;
#X connect 25 0 23 1;
#X connect 26 0 28 0;
#X connect 26 1 24 0;
#X connect 26 2 25 0;
#X connect 27 0 17 0;
#X connect 28 0 27 0;
#X connect 29 0 26 0;
#X connect 30 0 20 0;
#X connect 32 0 31 0;
#X connect 33 0 1 0;
#X connect 34 0 32 1;
#X restore 518 548 pd audio_engine;
#N canvas 834 196 947 782 audio_engine 0;
#X obj 38 414 phasor~;
#X msg 38 203 1;
#X obj 38 228 / 5;
#X floatatom 38 253 5 0 0 0 - - -, f 5;
#X obj 39 440 *~;
#X obj 38 277 sig~;
#X obj 39 377 *~;
#X obj 39 548 *~;
#X msg 191 503 \$1 20;
#X obj 191 528 line~;
#X obj 99 420 r \$0-n_samples;
#X obj 39 505 tabread4~ \$0-sample;
#X obj 38 167 loadbang;
#X obj 288 230 pow;
#X msg 288 199 2;
#X obj 288 167 t b f;
#X obj 330 201 / 12;
#X floatatom 188 307 0 0 0 0 pitch - -;
#X obj 88 287 sel 1;
#X obj 88 317 f 0;
#X obj 188 57 unpack 0 0;
#X obj 188 117 moses 0;
#X obj 208 247 pow;
#X msg 208 207 2;
#X obj 238 217 / 12;
#X obj 188 177 t b b f;
#X obj 188 277 /;
#X obj 188 227 f 1;
#X obj 188 147 * -1;
#X obj 190 20 inlet;
#X obj 40 630 outlet~;
#X obj 39 578 *~;
#X obj 140 450 t b;
#X obj 270 540 trapezoid~ 0.001 0.999;
#X obj 188 87 - 24;
#X connect 0 0 4 0;
#X connect 0 0 33 0;
#X connect 1 0 2 0;
#X connect 2 0 3 0;
#X connect 3 0 5 0;
#X connect 4 0 11 0;
#X connect 5 0 6 0;
#X connect 6 0 0 0;
#X connect 7 0 31 0;
#X connect 8 0 9 0;
#X connect 9 0 7 1;
#X connect 10 0 4 1;
#X connect 10 0 32 0;
#X connect 11 0 7 0;
#X connect 12 0 1 0;
#X connect 13 0 17 0;
#X connect 14 0 13 0;
#X connect 15 0 14 0;
#X connect 15 1 16 0;
#X connect 16 0 13 1;
#X connect 17 0 6 1;
#X connect 18 0 19 0;
#X connect 19 0 0 1;
#X connect 20 0 34 0;
#X connect 20 1 18 0;
#X connect 20 1 8 0;
#X connect 21 0 28 0;
#X connect 21 1 15 0;
#X connect 22 0 26 1;
#X connect 23 0 22 0;
#X connect 24 0 22 1;
#X connect 25 0 27 0;
#X connect 25 1 23 0;
#X connect 25 2 24 0;
#X connect 26 0 17 0;
#X connect 27 0 26 0;
#X connect 28 0 25 0;
#X connect 29 0 20 0;
#X connect 31 0 30 0;
#X connect 32 0 1 0;
#X connect 33 0 31 1;
#X connect 34 0 21 0;
#X restore 518 548 pd audio_engine;
#N canvas 834 193 947 782 audio_engine 0;
#X obj 38 414 phasor~;
#X msg 38 203 1;
#X obj 38 228 / 5;
#X floatatom 38 253 5 0 0 0 - - -, f 5;
#X obj 39 440 *~;
#X obj 38 277 sig~;
#X obj 39 377 *~;
#X obj 39 548 *~;
#X msg 191 503 \$1 20;
#X obj 191 528 line~;
#X obj 99 420 r \$0-n_samples;
#X obj 39 505 tabread4~ \$0-sample;
#X obj 38 167 loadbang;
#X obj 288 230 pow;
#X msg 288 199 2;
#X obj 288 167 t b f;
#X obj 330 201 / 12;
#X floatatom 188 307 0 0 0 0 pitch - -;
#X obj 88 287 sel 1;
#X obj 88 317 f 0;
#X obj 188 57 unpack 0 0;
#X obj 188 87 - 12;
#X obj 188 117 moses 0;
#X obj 208 247 pow;
#X msg 208 207 2;
#X obj 238 217 / 12;
#X obj 188 177 t b b f;
#X obj 188 277 /;
#X obj 188 227 f 1;
#X obj 188 147 * -1;
#X obj 190 20 inlet;
#X obj 40 630 outlet~;
#X obj 39 578 *~;
#X obj 140 450 t b;
#X obj 270 540 trapezoid~ 0.01 0.99;
#X connect 0 0 4 0;
#X connect 0 0 34 0;
#X connect 1 0 2 0;
#X connect 2 0 3 0;
#X connect 3 0 5 0;
#X connect 4 0 11 0;
#X connect 5 0 6 0;
#X connect 6 0 0 0;
#X connect 7 0 32 0;
#X connect 8 0 9 0;
#X connect 9 0 7 1;
#X connect 10 0 4 1;
#X connect 10 0 33 0;
#X connect 11 0 7 0;
#X connect 12 0 1 0;
#X connect 13 0 17 0;
#X connect 14 0 13 0;
#X connect 15 0 14 0;
#X connect 15 1 16 0;
#X connect 16 0 13 1;
#X connect 17 0 6 1;
#X connect 18 0 19 0;
#X connect 19 0 0 1;
#X connect 20 0 21 0;
#X connect 20 1 18 0;
#X connect 20 1 8 0;
#X connect 21 0 22 0;
#X connect 22 0 29 0;
#X connect 22 1 15 0;
#X connect 23 0 27 1;
#X connect 24 0 23 0;
#X connect 25 0 23 1;
#X connect 26 0 28 0;
#X connect 26 1 24 0;
#X connect 26 2 25 0;
#X connect 27 0 17 0;
#X connect 28 0 27 0;
#X connect 29 0 26 0;
#X connect 30 0 20 0;
#X connect 32 0 31 0;
#X connect 33 0 1 0;
#X connect 34 0 32 1;
#X restore 632 552 pd audio_engine;
#N canvas 834 196 947 782 audio_engine 0;
#X obj 38 414 phasor~;
#X msg 38 203 1;
#X obj 38 228 / 5;
#X floatatom 38 253 5 0 0 0 - - -, f 5;
#X obj 39 440 *~;
#X obj 38 277 sig~;
#X obj 39 377 *~;
#X obj 39 548 *~;
#X msg 191 503 \$1 20;
#X obj 191 528 line~;
#X obj 99 420 r \$0-n_samples;
#X obj 39 505 tabread4~ \$0-sample;
#X obj 38 167 loadbang;
#X obj 288 230 pow;
#X msg 288 199 2;
#X obj 288 167 t b f;
#X obj 330 201 / 12;
#X floatatom 188 307 0 0 0 0 pitch - -;
#X obj 88 287 sel 1;
#X obj 88 317 f 0;
#X obj 188 57 unpack 0 0;
#X obj 188 117 moses 0;
#X obj 208 247 pow;
#X msg 208 207 2;
#X obj 238 217 / 12;
#X obj 188 177 t b b f;
#X obj 188 277 /;
#X obj 188 227 f 1;
#X obj 188 147 * -1;
#X obj 190 20 inlet;
#X obj 40 630 outlet~;
#X obj 39 578 *~;
#X obj 140 450 t b;
#X obj 270 540 trapezoid~ 0.001 0.999;
#X obj 188 87 - 24;
#X connect 0 0 4 0;
#X connect 0 0 33 0;
#X connect 1 0 2 0;
#X connect 2 0 3 0;
#X connect 3 0 5 0;
#X connect 4 0 11 0;
#X connect 5 0 6 0;
#X connect 6 0 0 0;
#X connect 7 0 31 0;
#X connect 8 0 9 0;
#X connect 9 0 7 1;
#X connect 10 0 4 1;
#X connect 10 0 32 0;
#X connect 11 0 7 0;
#X connect 12 0 1 0;
#X connect 13 0 17 0;
#X connect 14 0 13 0;
#X connect 15 0 14 0;
#X connect 15 1 16 0;
#X connect 16 0 13 1;
#X connect 17 0 6 1;
#X connect 18 0 19 0;
#X connect 19 0 0 1;
#X connect 20 0 34 0;
#X connect 20 1 18 0;
#X connect 20 1 8 0;
#X connect 21 0 28 0;
#X connect 21 1 15 0;
#X connect 22 0 26 1;
#X connect 23 0 22 0;
#X connect 24 0 22 1;
#X connect 25 0 27 0;
#X connect 25 1 23 0;
#X connect 25 2 24 0;
#X connect 26 0 17 0;
#X connect 27 0 26 0;
#X connect 28 0 25 0;
#X connect 29 0 20 0;
#X connect 31 0 30 0;
#X connect 32 0 1 0;
#X connect 33 0 31 1;
#X connect 34 0 21 0;
#X restore 632 552 pd audio_engine;
#X obj 330 280 poly 8 0;
#X obj 535 767 print PRESSED;
#X obj 535 737 key 0;
#X connect 0 0 26 0;
#X connect 1 0 31 0;
#X connect 2 0 3 0;
#X connect 3 0 16 0;
#X connect 3 0 20 0;
#X connect 3 0 29 0;
#X connect 4 0 2 0;
#X connect 5 0 27 1;
#X connect 6 0 5 0;
#X connect 7 0 18 0;
#X connect 8 0 6 0;
#X connect 8 0 7 0;
#X connect 8 0 9 0;
#X connect 9 0 10 0;
#X connect 10 0 5 0;
#X connect 14 0 24 0;
#X connect 15 0 12 0;
#X connect 15 0 12 1;
#X connect 19 0 58 0;
#X connect 21 0 30 0;
#X connect 21 0 33 0;
#X connect 24 0 13 0;
#X connect 24 0 13 1;
#X connect 26 0 27 0;
#X connect 27 0 18 0;
#X connect 30 0 40 0;
#X connect 30 1 51 0;
#X connect 30 2 45 0;
#X connect 30 3 53 0;
#X connect 30 4 47 0;
#X connect 30 5 55 0;
#X connect 30 6 49 0;
#X connect 30 7 57 0;
#X connect 31 0 2 0;
#X connect 31 1 32 0;
#X connect 34 0 30 0;
#X connect 34 0 41 0;
#X connect 35 0 43 0;
#X connect 36 0 37 0;
#X connect 36 0 38 0;
#X connect 37 0 36 1;
#X connect 38 0 34 0;
#X connect 39 0 36 1;
#X connect 40 0 15 0;
#X connect 42 0 36 0;
#X connect 43 0 42 0;
#X connect 43 1 39 0;
#X connect 44 0 15 0;
#X connect 45 0 15 0;
#X connect 46 0 15 0;
#X connect 47 0 15 0;
#X connect 48 0 15 0;
#X connect 49 0 15 0;
#X connect 50 0 15 0;
#X connect 51 0 15 0;
#X connect 52 0 15 0;
#X connect 53 0 15 0;
#X connect 54 0 15 0;
#X connect 55 0 15 0;
#X connect 56 0 15 0;
#X connect 57 0 15 0;
#X connect 58 0 21 0;
#X connect 58 1 21 1;
#X connect 58 2 21 2;
#X connect 60 0 59 0;
